<svg width="48" height="48" viewBox="0 0 48 48" fill="none" xmlns="http://www.w3.org/2000/svg">
<path d="M24 15.8003C22.3782 15.8003 20.7928 16.2812 19.4444 17.1822C18.0959 18.0833 17.0449 19.3639 16.4242 20.8623C15.8036 22.3606 15.6412 24.0094 15.9576 25.6C16.274 27.1907 17.055 28.6518 18.2018 29.7985C19.3485 30.9453 20.8096 31.7263 22.4003 32.0427C23.9909 32.3591 25.6397 32.1967 27.138 31.5761C28.6364 30.9554 29.9171 29.9044 30.8181 28.5559C31.7191 27.2075 32.2 25.6221 32.2 24.0003C32.2027 22.9227 31.9924 21.8552 31.5812 20.8592C31.1701 19.8631 30.5662 18.9581 29.8042 18.1961C29.0422 17.4342 28.1372 16.8302 27.1412 16.4191C26.1451 16.0079 25.0776 15.7976 24 15.8003ZM24 29.3403C22.9439 29.3403 21.9114 29.0271 21.0333 28.4403C20.1551 27.8536 19.4707 27.0196 19.0665 26.0438C18.6623 25.068 18.5566 23.9943 18.7626 22.9585C18.9687 21.9226 19.4773 20.9711 20.2241 20.2243C20.9709 19.4775 21.9224 18.9689 22.9582 18.7629C23.9941 18.5568 25.0678 18.6626 26.0436 19.0668C27.0193 19.4709 27.8533 20.1554 28.4401 21.0335C29.0268 21.9117 29.34 22.9441 29.34 24.0003C29.34 25.4165 28.7774 26.7748 27.776 27.7762C26.7745 28.7777 25.4163 29.3403 24 29.3403ZM34.46 15.4603C34.46 15.8558 34.3427 16.2425 34.123 16.5714C33.9032 16.9003 33.5908 17.1567 33.2254 17.308C32.8599 17.4594 32.4578 17.499 32.0698 17.4218C31.6819 17.3447 31.3255 17.1542 31.0458 16.8745C30.7661 16.5948 30.5756 16.2384 30.4985 15.8505C30.4213 15.4625 30.4609 15.0604 30.6123 14.6949C30.7636 14.3295 31.02 14.0171 31.3489 13.7973C31.6778 13.5776 32.0645 13.4603 32.46 13.4603C32.9905 13.4603 33.4992 13.671 33.8742 14.0461C34.2493 14.4211 34.46 14.9298 34.46 15.4603ZM39.88 17.4603C39.9382 14.9739 39.0108 12.5655 37.3 10.7603C35.5045 9.02765 33.0949 8.07819 30.6 8.12027C28 8.00027 20 8.00027 17.4 8.12027C14.9144 8.06645 12.5076 8.99328 10.7 10.7003C8.9893 12.5055 8.06186 14.9139 8.12003 17.4003C8.00003 20.0003 8.00003 28.0003 8.12003 30.6003C8.06186 33.0866 8.9893 35.4951 10.7 37.3003C12.5076 39.0073 14.9144 39.9341 17.4 39.8803C20.04 40.0403 27.96 40.0403 30.6 39.8803C33.0864 39.9384 35.4948 39.011 37.3 37.3003C39.0108 35.4951 39.9382 33.0866 39.88 30.6003C40 28.0003 40 20.0003 39.88 17.4003V17.4603ZM36.48 33.4603C36.2085 34.1481 35.7985 34.7729 35.2756 35.2959C34.7527 35.8188 34.1279 36.2287 33.44 36.5003C30.3352 37.128 27.1611 37.3432 24 37.1403C20.8455 37.3435 17.678 37.1283 14.58 36.5003C13.8922 36.2287 13.2674 35.8188 12.7445 35.2959C12.2215 34.7729 11.8116 34.1481 11.54 33.4603C10.7 31.3403 10.88 26.3403 10.88 24.0203C10.88 21.7003 10.7 16.6803 11.54 14.5803C11.8039 13.8856 12.2109 13.2542 12.7347 12.727C13.2584 12.1999 13.8871 11.7887 14.58 11.5203C17.678 10.8922 20.8455 10.677 24 10.8803C27.1611 10.6774 30.3352 10.8926 33.44 11.5203C34.1279 11.7918 34.7527 12.2018 35.2756 12.7247C35.7985 13.2476 36.2085 13.8724 36.48 14.5603C37.32 16.6803 37.12 21.6803 37.12 24.0003C37.12 26.3203 37.32 31.3403 36.48 33.4403V33.4603Z" fill="#2F80ED"/>
</svg>
