<svg width="48" height="48" viewBox="0 0 48 48" fill="none" xmlns="http://www.w3.org/2000/svg">
<path d="M24 8C20.8355 8 17.7421 8.93838 15.1109 10.6965C12.4797 12.4546 10.4289 14.9534 9.21793 17.8771C8.00692 20.8007 7.69007 24.0177 8.30744 27.1214C8.9248 30.2251 10.4487 33.0761 12.6863 35.3137C14.9239 37.5513 17.7749 39.0752 20.8786 39.6926C23.9823 40.3099 27.1993 39.9931 30.1229 38.7821C33.0466 37.5711 35.5454 35.5203 37.3035 32.8891C39.0616 30.2579 40 27.1645 40 24C40 19.7565 38.3143 15.6869 35.3137 12.6863C32.3131 9.68571 28.2435 8 24 8ZM31.86 18.96L29.24 31.34C29.04 32.22 28.52 32.42 27.78 32.02L23.78 29.06L21.78 30.92C21.6858 31.0431 21.5648 31.1431 21.4262 31.2124C21.2876 31.2817 21.135 31.3185 20.98 31.32L21.26 27.32L28.66 20.62C29 20.34 28.66 20.18 28.18 20.46L19.1 26.16L15.1 24.92C14.24 24.66 14.22 24.06 15.28 23.66L30.7 17.66C31.46 17.44 32.1 17.88 31.86 18.96Z" fill="#2F80ED"/>
</svg>
