<svg width="48" height="48" viewBox="0 0 48 48" fill="none" xmlns="http://www.w3.org/2000/svg">
<path fill-rule="evenodd" clip-rule="evenodd" d="M34.6074 7.19995H12.1926C9.43527 7.19995 7.2 9.43523 7.2 12.1925V34.6074C7.2 37.3646 9.43527 39.6 12.1926 39.6H34.6074C37.3646 39.6 39.6 37.3646 39.6 34.6074V12.1925C39.6 9.43523 37.3646 7.19995 34.6074 7.19995ZM24.4535 29.8805H23.1282C23.1282 29.8805 20.204 30.0565 17.6284 27.3749C14.8197 24.4505 12.3394 18.6474 12.3394 18.6474C12.3394 18.6474 12.1964 18.2671 12.3518 18.083C12.5266 17.8762 13.0021 17.8629 13.0021 17.8629L16.1704 17.8422C16.1704 17.8422 16.4689 17.8919 16.6825 18.0489C16.8587 18.1784 16.9573 18.4204 16.9573 18.4204C16.9573 18.4204 17.4694 19.7155 18.1475 20.887C19.4711 23.1741 20.0876 23.6743 20.537 23.4293C21.1918 23.0721 20.9954 20.1962 20.9954 20.1962C20.9954 20.1962 21.0074 19.1525 20.6656 18.6875C20.4011 18.3275 19.9022 18.2222 19.6818 18.1929C19.5034 18.169 19.7961 17.7552 20.1754 17.5695C20.7455 17.2902 21.7522 17.2744 22.9419 17.2865C23.8688 17.2959 24.1357 17.3538 24.4981 17.4413C25.339 17.6443 25.3128 18.2948 25.2562 19.6985C25.2393 20.118 25.2197 20.6046 25.2197 21.1667C25.2197 21.2933 25.216 21.4282 25.2122 21.567C25.1925 22.2858 25.17 23.1085 25.6432 23.4143C25.8859 23.5711 26.4796 23.4376 27.9642 20.9168C28.6677 19.7219 29.1956 18.3172 29.1956 18.3172C29.1956 18.3172 29.3107 18.0667 29.4898 17.9595C29.673 17.8498 29.9204 17.8835 29.9204 17.8835L33.2544 17.8629C33.2544 17.8629 34.2563 17.7434 34.4184 18.1957C34.5886 18.6703 34.0441 19.7786 32.682 21.594C31.3884 23.3182 30.7597 23.9518 30.8188 24.5131C30.8619 24.9223 31.2705 25.293 32.0534 26.0196C33.6946 27.543 34.1321 28.3429 34.236 28.5329C34.2444 28.5482 34.2507 28.5596 34.2551 28.567C34.9896 29.7849 33.4407 29.8805 33.4407 29.8805L30.4795 29.9219C30.4795 29.9219 29.8432 30.0477 29.0058 29.4727C28.5679 29.1721 28.1399 28.6814 27.732 28.2138C27.1083 27.4987 26.5319 26.8377 26.0398 26.9938C25.2146 27.2557 25.2405 29.034 25.2405 29.034C25.2405 29.034 25.2465 29.4138 25.0584 29.6162C24.8538 29.8364 24.4535 29.8805 24.4535 29.8805Z" fill="#2F80ED"/>
</svg>
