<svg width="48" height="48" viewBox="0 0 48 48" fill="none" xmlns="http://www.w3.org/2000/svg">
<path d="M39.34 16.28C39.1621 15.5946 38.8055 14.9687 38.3066 14.4662C37.8076 13.9637 37.1842 13.6027 36.5 13.42C32.3519 12.9308 28.1765 12.7103 24 12.76C19.8235 12.7103 15.6481 12.9308 11.5 13.42C10.8158 13.6027 10.1924 13.9637 9.69345 14.4662C9.19448 14.9687 8.83785 15.5946 8.66 16.28C8.20562 18.8279 7.9847 21.412 8 24C7.98394 26.6014 8.20485 29.1988 8.66 31.76C8.84707 32.4344 9.2078 33.0479 9.70615 33.5392C10.2045 34.0306 10.823 34.3825 11.5 34.56C15.6481 35.0493 19.8235 35.2697 24 35.22C28.1765 35.2697 32.3519 35.0493 36.5 34.56C37.177 34.3825 37.7955 34.0306 38.2938 33.5392C38.7922 33.0479 39.1529 32.4344 39.34 31.76C39.7952 29.1988 40.0161 26.6014 40 24C40.0153 21.412 39.7944 18.8279 39.34 16.28ZM20.72 28.78V19.26L29.1 24L20.72 28.76V28.78Z" fill="#2F80ED"/>
</svg>
